<svg width="16" height="16" viewBox="0 0 16 16" fill="none" xmlns="http://www.w3.org/2000/svg">
<g clip-path="url(#clip0_2283_31216)">
<path d="M9.76793 7.10175C9.96319 6.90649 9.96319 6.58991 9.76793 6.39464C9.57267 6.19938 9.25608 6.19938 9.06082 6.39464L8.00016 7.4553L6.9395 6.39464C6.74424 6.19938 6.42766 6.19938 6.2324 6.39464C6.03713 6.58991 6.03713 6.90649 6.2324 7.10175L7.29306 8.16241L6.2324 9.22307C6.03713 9.41833 6.03713 9.73492 6.2324 9.93018C6.42766 10.1254 6.74424 10.1254 6.9395 9.93018L8.00016 8.86952L9.06082 9.93018C9.25609 10.1254 9.57267 10.1254 9.76793 9.93018C9.96319 9.73492 9.96319 9.41833 9.76793 9.22307L8.70727 8.16241L9.76793 7.10175Z" fill="black"/>
<path fill-rule="evenodd" clip-rule="evenodd" d="M8.00016 0.833984C4.04212 0.833984 0.833496 4.04261 0.833496 8.00065C0.833496 11.9587 4.04212 15.1673 8.00016 15.1673C11.9582 15.1673 15.1668 11.9587 15.1668 8.00065C15.1668 4.04261 11.9582 0.833984 8.00016 0.833984ZM1.8335 8.00065C1.8335 4.5949 4.59441 1.83398 8.00016 1.83398C11.4059 1.83398 14.1668 4.5949 14.1668 8.00065C14.1668 11.4064 11.4059 14.1673 8.00016 14.1673C4.59441 14.1673 1.8335 11.4064 1.8335 8.00065Z" fill="black"/>
</g>
<defs>
<clipPath id="clip0_2283_31216">
<rect width="16" height="16" fill="white"/>
</clipPath>
</defs>
</svg>
