<svg width="16" height="16" viewBox="0 0 16 16" fill="none" xmlns="http://www.w3.org/2000/svg">
<path d="M9.68514 5.02114C9.88127 4.82675 9.88269 4.51017 9.6883 4.31404C9.49391 4.11791 9.17733 4.1165 8.9812 4.31089L7.78471 5.49675C7.33406 5.94338 6.96575 6.30841 6.70454 6.63366C6.43292 6.97187 6.2363 7.31517 6.18378 7.72724C6.16075 7.90793 6.16075 8.09077 6.18378 8.27146C6.2363 8.68353 6.43292 9.02683 6.70454 9.36504C6.96574 9.69029 7.33406 10.0553 7.7847 10.5019L8.9812 11.6878C9.17733 11.8822 9.49391 11.8808 9.6883 11.6847C9.88269 11.4885 9.88127 11.1719 9.68514 10.9776L8.50983 9.81268C8.03283 9.33992 7.70563 9.01456 7.48423 8.73888C7.26917 8.47108 7.19539 8.29907 7.17575 8.14502C7.16342 8.04829 7.16342 7.95041 7.17575 7.85368C7.19539 7.69963 7.26917 7.52762 7.48423 7.25982C7.70563 6.98413 8.03283 6.65877 8.50983 6.18602L9.68514 5.02114Z" fill="black"/>
</svg>
