<svg width="16" height="16" viewBox="0 0 16 16" fill="none" xmlns="http://www.w3.org/2000/svg">
<path d="M7.01848 4.31089C6.82235 4.1165 6.50577 4.11791 6.31138 4.31404C6.11699 4.51017 6.1184 4.82675 6.31453 5.02114L7.48984 6.18601C7.96684 6.65877 8.29404 6.98413 8.51544 7.25982C8.73051 7.52762 8.80429 7.69963 8.82392 7.85368C8.83625 7.95041 8.83625 8.04829 8.82392 8.14502C8.80429 8.29907 8.73051 8.47108 8.51544 8.73888C8.29404 9.01456 7.96684 9.33992 7.48984 9.81268L6.31453 10.9776C6.1184 11.1719 6.11699 11.4885 6.31138 11.6847C6.50577 11.8808 6.82235 11.8822 7.01848 11.6878L8.21496 10.502C8.66561 10.0553 9.03393 9.69029 9.29513 9.36504C9.56675 9.02683 9.76337 8.68353 9.8159 8.27146C9.83893 8.09077 9.83893 7.90793 9.8159 7.72724C9.76337 7.31517 9.56675 6.97187 9.29513 6.63365C9.03393 6.30841 8.66561 5.94338 8.21496 5.49674L7.01848 4.31089Z" fill="black"/>
</svg>
